<svg width="1200" height="720" viewBox="0 0 1200 720" fill="none" xmlns="http://www.w3.org/2000/svg">
  <defs>
    <linearGradient id="bg" x1="90" y1="60" x2="1110" y2="660" gradientUnits="userSpaceOnUse">
      <stop stop-color="#F7FBFF"/>
      <stop offset="1" stop-color="#ECF4FF"/>
    </linearGradient>
    <linearGradient id="card" x1="0" y1="0" x2="0" y2="1">
      <stop stop-color="#FFFFFF"/>
      <stop offset="1" stop-color="#F8FBFF"/>
    </linearGradient>
    <filter id="shadow" x="0" y="0" width="1200" height="720" filterUnits="userSpaceOnUse" color-interpolation-filters="sRGB">
      <feDropShadow dx="0" dy="14" stdDeviation="18" flood-color="#123B6A" flood-opacity="0.12"/>
    </filter>
    <marker id="arrow" markerWidth="10" markerHeight="10" refX="8" refY="5" orient="auto">
      <path d="M0 0L10 5L0 10V0Z" fill="#2A6CB0"/>
    </marker>
  </defs>

  <rect width="1200" height="720" rx="28" fill="url(#bg)"/>
  <rect x="42" y="42" width="1116" height="636" rx="26" stroke="#C8DCF5" stroke-width="2"/>

  <text x="86" y="108" fill="#153A63" font-family="Verdana, Geneva, sans-serif" font-size="40" font-weight="700">Frontend Container</text>
  <text x="86" y="146" fill="#52759B" font-family="Verdana, Geneva, sans-serif" font-size="22">React SPA for student and admin experiences</text>

  <g filter="url(#shadow)">
    <rect x="80" y="190" width="280" height="190" rx="24" fill="url(#card)"/>
    <rect x="80" y="190" width="280" height="190" rx="24" stroke="#D7E6F8" stroke-width="2"/>
    <text x="112" y="240" fill="#1E4F82" font-family="Verdana, Geneva, sans-serif" font-size="26" font-weight="700">Public Pages</text>
    <text x="112" y="286" fill="#365B82" font-family="Verdana, Geneva, sans-serif" font-size="22">Login</text>
    <text x="112" y="320" fill="#365B82" font-family="Verdana, Geneva, sans-serif" font-size="22">Register</text>
    <text x="112" y="354" fill="#365B82" font-family="Verdana, Geneva, sans-serif" font-size="22">Forgot Password</text>
  </g>

  <g filter="url(#shadow)">
    <rect x="400" y="190" width="360" height="190" rx="24" fill="url(#card)"/>
    <rect x="400" y="190" width="360" height="190" rx="24" stroke="#D7E6F8" stroke-width="2"/>
    <text x="432" y="240" fill="#1E4F82" font-family="Verdana, Geneva, sans-serif" font-size="26" font-weight="700">Shared App Layer</text>
    <text x="432" y="286" fill="#365B82" font-family="Verdana, Geneva, sans-serif" font-size="22">Auth Context</text>
    <text x="432" y="320" fill="#365B82" font-family="Verdana, Geneva, sans-serif" font-size="22">Route Guards</text>
    <text x="432" y="354" fill="#365B82" font-family="Verdana, Geneva, sans-serif" font-size="22">API Client and Error Handling</text>
  </g>

  <g filter="url(#shadow)">
    <rect x="800" y="190" width="320" height="190" rx="24" fill="url(#card)"/>
    <rect x="800" y="190" width="320" height="190" rx="24" stroke="#D7E6F8" stroke-width="2"/>
    <text x="832" y="240" fill="#1E4F82" font-family="Verdana, Geneva, sans-serif" font-size="26" font-weight="700">UI Composition</text>
    <text x="832" y="286" fill="#365B82" font-family="Verdana, Geneva, sans-serif" font-size="22">Layouts</text>
    <text x="832" y="320" fill="#365B82" font-family="Verdana, Geneva, sans-serif" font-size="22">Forms</text>
    <text x="832" y="354" fill="#365B82" font-family="Verdana, Geneva, sans-serif" font-size="22">Tables and Feedback</text>
  </g>

  <g filter="url(#shadow)">
    <rect x="120" y="450" width="340" height="180" rx="24" fill="url(#card)"/>
    <rect x="120" y="450" width="340" height="180" rx="24" stroke="#D7E6F8" stroke-width="2"/>
    <text x="152" y="500" fill="#1E4F82" font-family="Verdana, Geneva, sans-serif" font-size="26" font-weight="700">Student Area</text>
    <text x="152" y="546" fill="#365B82" font-family="Verdana, Geneva, sans-serif" font-size="22">Dashboard</text>
    <text x="152" y="580" fill="#365B82" font-family="Verdana, Geneva, sans-serif" font-size="22">Profile and Status</text>
    <text x="152" y="614" fill="#365B82" font-family="Verdana, Geneva, sans-serif" font-size="22">ID Card and Admit Card</text>
  </g>

  <g filter="url(#shadow)">
    <rect x="520" y="450" width="340" height="180" rx="24" fill="url(#card)"/>
    <rect x="520" y="450" width="340" height="180" rx="24" stroke="#D7E6F8" stroke-width="2"/>
    <text x="552" y="500" fill="#1E4F82" font-family="Verdana, Geneva, sans-serif" font-size="26" font-weight="700">Admin Area</text>
    <text x="552" y="546" fill="#365B82" font-family="Verdana, Geneva, sans-serif" font-size="22">Students and Reviews</text>
    <text x="552" y="580" fill="#365B82" font-family="Verdana, Geneva, sans-serif" font-size="22">Centers and Exams</text>
    <text x="552" y="614" fill="#365B82" font-family="Verdana, Geneva, sans-serif" font-size="22">Reports and Dashboard</text>
  </g>

  <g filter="url(#shadow)">
    <rect x="900" y="450" width="180" height="180" rx="24" fill="#1F5FA0"/>
    <text x="940" y="520" fill="#FFFFFF" font-family="Verdana, Geneva, sans-serif" font-size="28" font-weight="700">API</text>
    <text x="928" y="560" fill="#DDEBFA" font-family="Verdana, Geneva, sans-serif" font-size="20">Backend</text>
    <text x="922" y="590" fill="#DDEBFA" font-family="Verdana, Geneva, sans-serif" font-size="20">Requests</text>
  </g>

  <path d="M260 390C260 420 260 420 260 440" stroke="#2A6CB0" stroke-width="4" stroke-linecap="round" marker-end="url(#arrow)"/>
  <path d="M580 390C580 420 620 420 620 440" stroke="#2A6CB0" stroke-width="4" stroke-linecap="round" marker-end="url(#arrow)"/>
  <path d="M960 390C960 420 960 420 960 440" stroke="#2A6CB0" stroke-width="4" stroke-linecap="round" marker-end="url(#arrow)"/>
  <path d="M460 540H500" stroke="#2A6CB0" stroke-width="4" stroke-linecap="round" marker-end="url(#arrow)"/>
  <path d="M860 540H890" stroke="#2A6CB0" stroke-width="4" stroke-linecap="round" marker-end="url(#arrow)"/>

  <text x="80" y="674" fill="#6485A9" font-family="Verdana, Geneva, sans-serif" font-size="18">Frontend image 1 of 3 • routes, shared app shell, and role-specific pages</text>
</svg>
